# xmcd
#
# Track frame offsets:
#	150
#	9799
#	19826
#	38156
#	45324
#	66159
#	74836
#	88136
#	105999
#	116972
#
# Disc length: 1769 seconds
#
# Revision: 0
# Processed by: cddbd v1.5.2PL0 Copyright (c) Steve Scherf et al.
# Submitted via: dBpowerAMP V4.0
#
DISCID=7f06e70a
DTITLE=Beth Williams - Steady Conversation With the Lord
DYEAR=1999
DGENRE=Country/Gospel
TTITLE0=Steady Conversation with the Lord
TTITLE1=Are you Washed in the Blood of the Lamb
TTITLE2=Just a Closer Walk with Thee
TTITLE3=This World is Not My Home
TTITLE4=Precious Memories/ What a Friend We Have in Jesus
TTITLE5=I Shall Not Be Moved
TTITLE6=Rock of Ages
TTITLE7=I Believe/ Swing Low
TTITLE8=Jesus Loves Me
TTITLE9=Life's Railway to Heaven
EXTD=
EXTT0=
EXTT1=
EXTT2=
EXTT3=
EXTT4=
EXTT5=
EXTT6=
EXTT7=
EXTT8=
EXTT9=
PLAYORDER=
